<?xml version="1.0" encoding="utf-8"?>
<!-- Generator: Adobe Illustrator 24.1.2, SVG Export Plug-In . SVG Version: 6.00 Build 0)  -->
<svg version="1.1" id="Слой_1" xmlns="http://www.w3.org/2000/svg" xmlns:xlink="http://www.w3.org/1999/xlink" x="0px" y="0px"
	 viewBox="0 0 560 288" style="enable-background:new 0 0 560 288;" xml:space="preserve">
<style type="text/css">
	.st0{fill:#CCCCCC;stroke:#000000;stroke-width:0.25;stroke-miterlimit:10;}
	.st1{fill:#333333;}
	.st2{font-family:'GOSTTypeA';}
	.st3{font-size:23.631px;}
	.st4{fill:#FFFFFF;stroke:#000066;stroke-width:0.5;stroke-miterlimit:10;}
	.st5{fill:none;stroke:#000000;stroke-width:0.25;stroke-miterlimit:10;}
</style>
<g>
	<path class="st0" d="M157.7,71.7c0,0,0,0,0.2,0.2c0.3,0.2,0.4,0.4,0.6,0.5c0.2,0.1,0.4,0.3,0.7,0.6l0,0c0.4,0.3,9.9,6.4,13.2,8.7
		c11.3,7.9,15.9,19.2,20.4,30.1c3.4,8.2,9.8,23.7,4.3,28.4c-1.9,1.6-4.1,1-10.1,0.4c-20-2.1-32.5,0.3-33.1-2.6
		c-0.3-1.6,3.4-2,3.7-4.8c0.7-5.4-9.4-8.1-14.4-17.6c-0.8-1.5-1.2-2.7-2.7-13.9c0,0-4.2-31.9-3.2-44.8c0-0.2,0.5-6.9,0.5-6.9
		c0.4-2.3,2.1-4.2,4.3-4.8c2.8-0.8,5.1,0.9,5.3,1.1c0.7,0.3,2.7,1.3,3.1,2.9c0.1,0.3,0.2,1,0.3,1.8c0.1,0.7,0.1,1.2,0.1,1.4
		c0,1.2,0.2,2.3,0.2,3.5c0.1,4.8,0.7,12.4,1.2,18.8c0.1,0.6,0.1,1.5,0.2,2.4c0.5,6.3,0.1,7.6,0.8,9.7c0.4,1.2,1.1,2.9,2.9,4.7
		c4.1,3.5,9.1,8.5,13.1,15.6c1.3,2.2,2.3,4.4,3.2,6.4c-2.6-6.3-5.8-10.5-8.4-13.3c-3.6-3.9-10.5-9.9-11-14.8c0-0.3-0.1-1.4-0.3-3.6
		c-0.1-1.5-0.3-3-0.4-4.9c-0.2-3.3,0-3.7,0.2-4.1c1.1-1.5,3.4-1.5,3.9-1.4C156.8,71.4,157.3,71.5,157.7,71.7z"/>
	<path class="st0" d="M153.6,51"/>
	<path class="st0" d="M151,50.9c0.7-0.6,2.4-1.8,4-1.3c1.7,0.6,2.4,2.9,2.8,5c0.7,3.3,1.5,9.1,1.2,18.1c-0.3-0.3-1.2-1.3-2.6-1.5
		c-0.8-0.1-1.5,0.1-1.8,0.3c-0.4,0.1-0.8,0.3-1.1,0.6c-0.4,0.4-0.5,0.6-0.6,0.6c-0.7,0-0.9-5.1-0.9-5.1
		C151.8,64.1,151.5,58.9,151,50.9z"/>
	<path class="st0" d="M241.9,70.6c0.4-0.1,2.8-0.1,3.9,1.4c0.2,0.3,0.4,0.7,0.2,4.1c-0.1,1.9-0.3,3.4-0.4,4.9
		c-0.2,2.2-0.3,3.3-0.3,3.6c-0.5,4.8-7.4,10.9-11,14.8c-2.5,2.8-5.7,7-8.4,13.3c0.9-2,1.9-4.2,3.2-6.4c4.1-7,9-12.1,13.1-15.6
		c1.7-1.8,2.5-3.5,2.9-4.7c0.7-2.2,0.3-3.4,0.8-9.7c0.1-1,0.1-1.8,0.2-2.4c0.5-6.4,1.1-14,1.2-18.8c0-1.2,0.2-2.3,0.2-3.5
		c0-0.3,0-0.7,0.1-1.4c0.1-0.8,0.2-1.5,0.3-1.8c0.4-1.5,2.4-2.5,3.1-2.9c0.3-0.2,2.5-1.9,5.3-1.1c2.2,0.6,3.8,2.5,4.3,4.8
		c0,0,0.5,6.7,0.5,6.9c1,12.9-3.2,44.8-3.2,44.8c-1.5,11.1-1.9,12.3-2.7,13.9c-5,9.5-15.1,12.2-14.4,17.6c0.3,2.8,4,3.2,3.7,4.8
		c-0.6,2.9-13.1,0.5-33.1,2.6c-6.1,0.6-8.3,1.2-10.1-0.4c-5.5-4.7,0.9-20.2,4.3-28.4c4.5-11,9.1-22.3,20.4-30.1
		c3.3-2.3,12.8-8.5,13.2-8.7l0,0c0.3-0.3,0.6-0.5,0.7-0.6c0.1-0.1,0.3-0.3,0.6-0.5c0.2-0.2,0.2-0.2,0.2-0.2
		C241.2,70.7,241.7,70.6,241.9,70.6z"/>
	<path class="st0" d="M244.9,50.2"/>
	<path class="st0" d="M247.6,50.1c-0.7-0.6-2.4-1.8-4-1.3c-1.7,0.6-2.4,2.9-2.8,5c-0.7,3.3-1.5,9.1-1.2,18.1
		c0.3-0.3,1.2-1.3,2.6-1.5c0.8-0.1,1.5,0.1,1.8,0.3c0.4,0.1,0.8,0.3,1.1,0.6c0.4,0.4,0.5,0.6,0.6,0.6c0.7,0,0.9-5.1,0.9-5.1
		C246.8,63.3,247.1,58.1,247.6,50.1z"/>
	<text transform="matrix(1.1499 0 0 1 169.8003 72.6309)" class="st1 st2 st3">!Code&gt;</text>
	<text transform="matrix(1.1499 0 0 1 169.8003 72.6309)" class="st4 st2 st3">!Code&gt;</text>
</g>
<path class="st5" d="M152,44.2"/>
</svg>
