<!-- icon666.com - MILLIONS vector ICONS FREE --><svg version="1.1" id="Capa_1" xmlns="http://www.w3.org/2000/svg" xmlns:xlink="http://www.w3.org/1999/xlink" x="0px" y="0px" viewBox="0 0 512 512" style="enable-background:new 0 0 512 512;" xml:space="preserve"><g><g><path d="M192,320h-32V192h10.667c5.899,0,10.667-4.779,10.667-10.667s-4.768-10.667-10.667-10.667h-21.333 c-5.899,0-10.667,4.779-10.667,10.667v149.333c0,5.888,4.768,10.667,10.667,10.667H192c11.765,0,21.333,9.568,21.333,21.333 v106.667c0,11.765-9.568,21.333-21.333,21.333h-21.333V416c0-2.827-1.12-5.547-3.125-7.541l-21.333-21.333 c-1.995-2.005-4.704-3.125-7.541-3.125H96c-2.837,0-5.547,1.12-7.541,3.125l-21.333,21.333C65.12,410.453,64,413.173,64,416 v74.667H42.667c-11.765,0-21.333-9.568-21.333-21.333V362.667c0-11.765,9.568-21.333,21.333-21.333h42.667 c5.899,0,10.667-4.779,10.667-10.667V224c0-5.888-4.768-10.667-10.667-10.667c-5.899,0-10.667,4.779-10.667,10.667v96h-32 C19.136,320,0,339.136,0,362.667v106.667C0,492.864,19.136,512,42.667,512h32c5.899,0,10.667-4.779,10.667-10.667v-80.917 l15.083-15.083h33.835l15.083,15.083v80.917c0,5.888,4.768,10.667,10.667,10.667h32c23.531,0,42.667-19.136,42.667-42.667V362.667 C234.667,339.136,215.531,320,192,320z"></path></g></g><g><g><path d="M192,0h-32c-5.899,0-10.667,4.779-10.667,10.667v80.917l-15.083,15.083h-33.835L85.333,91.584V10.667 C85.333,4.779,80.565,0,74.667,0h-32C19.136,0,0,19.136,0,42.667v106.667C0,172.864,19.136,192,42.667,192h64 c5.899,0,10.667-4.779,10.667-10.667s-4.768-10.667-10.667-10.667h-64c-11.765,0-21.333-9.568-21.333-21.333V42.667 c0-11.765,9.568-21.333,21.333-21.333H64V96c0,2.827,1.12,5.547,3.125,7.541l21.333,21.333C90.453,126.88,93.163,128,96,128 h42.667c2.837,0,5.547-1.12,7.541-3.125l21.333-21.333c2.005-1.995,3.125-4.715,3.125-7.541V21.333H192 c11.765,0,21.333,9.568,21.333,21.333v32c0,5.888,4.768,10.667,10.667,10.667s10.667-4.779,10.667-10.667v-32 C234.667,19.136,215.531,0,192,0z"></path></g></g><g><g><path d="M437.333,170.667h-16.235c-1.12-3.168-2.421-6.283-3.851-9.312l11.477-11.488c8.32-8.32,8.32-21.856,0-30.176 l-15.083-15.083c-4.032-4.032-9.387-6.251-15.083-6.251c-0.011,0-0.011,0-0.021,0c-5.696,0-11.051,2.219-15.061,6.251 l-11.488,11.477c-3.029-1.44-6.133-2.731-9.312-3.851V96c0-11.765-9.568-21.333-21.333-21.333h-21.333 c-11.765,0-21.333,9.568-21.333,21.333v16.235c-3.179,1.12-6.283,2.411-9.312,3.851l-11.477-11.467 c-4.021-4.032-9.376-6.251-15.072-6.261c-0.011,0-0.011,0-0.021,0c-5.696,0-11.051,2.219-15.083,6.251l-15.083,15.083 c-8.32,8.32-8.32,21.856,0,30.176l11.477,11.488c-1.44,3.029-2.731,6.144-3.851,9.312H224c-11.765,0-21.333,9.568-21.333,21.333 v21.333c0,11.765,9.568,21.333,21.333,21.333h16.235c1.12,3.168,2.421,6.283,3.851,9.312l-11.477,11.488 c-8.32,8.32-8.32,21.856,0,30.176l15.083,15.083c4.032,4.032,9.387,6.251,15.083,6.251c0.021-0.011,0.021-0.011,0.032-0.011l0,0 c5.696,0,11.051-2.219,15.061-6.251l11.488-11.477c3.029,1.44,6.133,2.731,9.312,3.851v16.245 c0,11.765,9.568,21.333,21.333,21.333h21.333c11.765,0,21.333-9.568,21.333-21.333v-16.235c3.179-1.12,6.283-2.411,9.312-3.851 l11.477,11.467c4.021,4.032,9.376,6.251,15.072,6.261h0.021c5.696,0,11.051-2.219,15.083-6.251l15.083-15.083 c8.32-8.32,8.32-21.856,0-30.176l-11.477-11.488c1.44-3.029,2.731-6.144,3.851-9.312h16.245c11.765,0,21.333-9.568,21.333-21.333 V192C458.667,180.235,449.099,170.667,437.333,170.667z M437.333,213.333h-24.128c-4.864,0-9.109,3.285-10.325,8 c-1.749,6.763-4.427,13.227-7.957,19.2c-2.464,4.192-1.792,9.525,1.643,12.96l17.067,17.067l-15.083,15.083l-17.067-17.056 c-3.424-3.435-8.779-4.117-12.971-1.643c-5.963,3.52-12.416,6.187-19.189,7.936c-4.693,1.205-7.989,5.461-7.989,10.325v24.128H320 v-24.128c0-4.864-3.296-9.109-8-10.325c-6.773-1.749-13.227-4.416-19.189-7.936c-1.685-1.003-3.563-1.483-5.429-1.483 c-2.752,0-5.493,1.067-7.541,3.125l-17.067,17.056l-15.083-15.093l17.067-17.056c3.445-3.445,4.117-8.779,1.653-12.971 c-3.531-5.973-6.208-12.437-7.957-19.2c-1.227-4.704-5.461-7.989-10.325-7.989H224V192h24.128c4.864,0,9.109-3.285,10.325-8 c1.749-6.763,4.427-13.227,7.957-19.2c2.464-4.192,1.792-9.525-1.643-12.96l-17.067-17.067l15.083-15.083l17.067,17.056 c3.445,3.456,8.789,4.117,12.971,1.643c5.963-3.52,12.416-6.187,19.189-7.936c4.704-1.216,8-5.461,8-10.325V96h21.333v24.128 c0,4.864,3.296,9.109,8,10.325c6.773,1.749,13.227,4.416,19.189,7.936c4.171,2.475,9.525,1.813,12.971-1.643l17.067-17.056 l15.083,15.093l-17.067,17.056c-3.435,3.435-4.117,8.768-1.643,12.96c3.531,5.973,6.208,12.437,7.957,19.2 c1.216,4.704,5.461,8,10.325,8h24.107V213.333z"></path></g></g><g><g><path d="M330.667,160C307.136,160,288,179.136,288,202.667c0,23.531,19.136,42.667,42.667,42.667s42.667-19.136,42.667-42.667 C373.333,179.136,354.197,160,330.667,160z M330.667,224c-11.765,0-21.333-9.568-21.333-21.333 c0-11.765,9.568-21.333,21.333-21.333c11.765,0,21.333,9.568,21.333,21.333C352,214.432,342.432,224,330.667,224z"></path></g></g><g><g><path d="M341.333,32h-74.667C260.768,32,256,36.779,256,42.667s4.768,10.667,10.667,10.667h74.667 c82.347,0,149.333,66.987,149.333,149.333S423.68,352,341.333,352h-74.667c-5.899,0-10.667,4.779-10.667,10.667 s4.768,10.667,10.667,10.667h74.667c94.101,0,170.667-76.565,170.667-170.667S435.435,32,341.333,32z"></path></g></g></svg>