<svg xmlns="http://www.w3.org/2000/svg" viewBox="0 0 1080 1178"><defs><style>.cls-1,.cls-2{fill:#fff;}.cls-2{stroke:#000;stroke-miterlimit:10;stroke-width:7.11px;}.cls-3{font-size:151.22px;font-family:MyriadPro-Regular, Myriad Pro;}.cls-4{letter-spacing:0.02em;}.cls-5{fill:#ffffec;}.cls-6{fill:#bf3311;}</style></defs><g id="Слой_2" data-name="Слой 2"><g id="Слой_1-2" data-name="Слой 1"><path class="cls-1" d="M549.5,1004.5c-16.35,0-33.28-12-50.32-35.62-16.07-22.3-31.71-54.73-45.24-93.79-27.69-80-44.31-180.23-44.44-268.09C409.27,456.9,457,282.15,513.6,225.41,525.8,213.2,537.88,207,549.5,207s23.7,6.2,35.9,18.41C642.05,282.15,689.73,456.9,689.5,607c-.13,87.86-16.75,188.08-44.44,268.09-13.53,39.06-29.17,71.49-45.24,93.79C582.78,992.52,565.85,1004.5,549.5,1004.5Z"/><path d="M549.5,209.5c10.93,0,22.42,5.95,34.13,17.68C639.89,283.52,687.22,457.45,687,607c-.13,87.61-16.69,187.52-44.31,267.28-13.44,38.84-29,71-44.9,93.15C581.48,990,564.78,1002,549.5,1002s-32-12-48.29-34.58c-15.93-22.11-31.46-54.31-44.9-93.15C428.69,794.51,412.13,694.6,412,607c-.22-149.54,47.11-323.47,103.37-379.81,11.71-11.73,23.2-17.68,34.13-17.68m0-5C477.94,204.5,406.72,421.89,407,607c.28,183.76,71.11,400,142.5,400S691.72,790.76,692,607c.28-185.11-70.94-402.5-142.5-402.5Z"/><path class="cls-2" d="M108.5,604.5c0,220.91,188,400,420,400,557.22-21.32,557.07-778.75,0-800C296.54,204.5,108.5,383.59,108.5,604.5Z"/><text class="cls-3" transform="translate(289.39 397.08) scale(1.25 1)"><tspan class="cls-4">WW</tspan><tspan x="260.69" y="0">W</tspan></text><path d="M817,867H262V642H817Z"/><path class="cls-5" d="M577,737c0,16.57-16.79,30-37.5,30-49.61-1.31-49.6-58.69,0-60C560.21,707,577,720.43,577,737Z"/><rect class="cls-5" x="527" y="762" width="25" height="40"/><path d="M418.19,650.14c-4.87-13.26-10.78-36.09-5.34-63.28C423.45,520.21,477.18,500.91,541,509c23.11,2.66,38.93,8.34,42.71,9.74a163.93,163.93,0,0,1,21.35,9.73c11.21,6.09,16.82,9.14,21.36,14.61,5.44,6.54,2.28,7.46,10.68,24.33,4.38,8.81,10.67,19.46,10.67,19.47h0c4.21,5.54,9.18,13.8,10.68,24.34,3.2,22.37-11.48,39-5.34,43.81,3.6,2.8,9.48-2.28,21.36-4.87,29.61-6.44,49.1,12.91,58.73,4.87,5.47-4.57,3.62-14.55,0-34.07-4.61-23.31-7.08-24.72-26.7-53.55-6.8-9-27.73-44.36-32-48.67C661,504,648.89,504,647.76,499.25c-5-21.57,224.1-88,224.24-87.62s-220.52,72.84-299,53.54c-8.6-2.11-45.07-12.6-90.76-4.86a200.11,200.11,0,0,0-21.36,4.86C390.38,484,240.9,398.7,242,397s155.44,82,144.15,112c-1.83,4.85-8.16,8.67-16,24.34-4.45,8.87-4.68,12.16-10.68,24.34-5.62,11.42-6.11,10-10.68,19.47-8.6,17.93-10.24,30.21-10.67,34.07-.79,7-.73,14.54,0,14.61,1.32.12,6.15-24.18,5.34-24.34-1.12-.23-19.36,43.8-5.34,53.54,4.15,2.89,8.57,1,26.69,0a296.35,296.35,0,0,1,32,0"/><path class="cls-6" d="M502,562c-.92,26.4-49.09,26.39-50,0C452.92,535.6,501.09,535.61,502,562Z"/><path class="cls-6" d="M577.58,553c8-25.19,54.37-12.26,48.17,13.41C617.79,591.56,571.38,578.64,577.58,553Z"/><path d="M540,30.85A467.69,467.69,0,0,1,737.27,74.3a496.4,496.4,0,0,1,86.35,51.13,526.11,526.11,0,0,1,75.48,67.93c47,51.25,83.9,111,109.7,177.53,26.78,69,40.35,142.43,40.35,218.11s-13.57,149.07-40.35,218.11C983,873.66,946.09,933.39,899.1,984.64a526.11,526.11,0,0,1-75.48,67.93,496.4,496.4,0,0,1-86.35,51.13,469.54,469.54,0,0,1-394.54,0,496.4,496.4,0,0,1-86.35-51.13,526.11,526.11,0,0,1-75.48-67.93c-47-51.25-83.9-111-109.7-177.53C44.42,738.07,30.85,664.68,30.85,589S44.42,439.93,71.2,370.89C97,304.34,133.91,244.61,180.9,193.36a526.11,526.11,0,0,1,75.48-67.93A496.4,496.4,0,0,1,342.73,74.3,467.69,467.69,0,0,1,540,30.85M540,0C241.77,0,0,263.7,0,589s241.77,589,540,589,540-263.7,540-589S838.23,0,540,0Z"/><path class="cls-1" d="M543,1033v0Z"/><path d="M543,1018v0Z"/></g></g></svg>