<?xml version="1.0" encoding="utf-8"?>
<!-- Generator: Adobe Illustrator 24.1.2, SVG Export Plug-In . SVG Version: 6.00 Build 0)  -->
<svg version="1.1" id="Слой_1" xmlns="http://www.w3.org/2000/svg" xmlns:xlink="http://www.w3.org/1999/xlink" x="0px" y="0px"
	 viewBox="0 0 250 150" style="enable-background:new 0 0 250 150;" xml:space="preserve">
<style type="text/css">
	.st0{font-family:'MyriadPro-Regular';}
	.st1{font-size:12.5594px;}
	.st2{fill:#CCFFCC;}
	.st3{fill:none;stroke:#CCF7FA;stroke-width:0.8379;stroke-miterlimit:10;}
	.st4{fill:#17EEFF;stroke:#00B9A7;stroke-width:0.5039;stroke-miterlimit:10;}
	.st5{fill:#3E3D4D;stroke:#00B9A7;stroke-width:1.055;stroke-miterlimit:10;}
	.st6{font-family:'GOSTTypeA';}
	.st7{font-size:150.1278px;}
</style>
<g>
	<text transform="matrix(1.0171 0 0 1 68.082 60.1392)" class="st0 st1"> </text>
	<g>
		<path class="st2" d="M1.81,143c0,4.16,3.38,7.54,7.54,7.54h231.19c4.16,0,7.54-3.38,7.54-7.54V6.09c0-4.16-3.38-7.54-7.54-7.54
			H9.35c-4.16,0-7.54,3.38-7.54,7.54V143z"/>
		<path class="st3" d="M1.81,143c0,4.16,3.38,7.54,7.54,7.54h231.19c4.16,0,7.54-3.38,7.54-7.54V6.09c0-4.16-3.38-7.54-7.54-7.54
			H9.35c-4.16,0-7.54,3.38-7.54,7.54V143z"/>
	</g>
	<polygon class="st4" points="202.43,12.85 221.03,11.11 235.32,0 237.84,17.87 250,31.97 231.41,33.71 217.12,44.82 214.59,26.95 	
		"/>
	<text transform="matrix(2.002 0 0 1 70.4229 131.8652)" class="st5 st6 st7">V</text>
	<text transform="matrix(2.002 0 0 1 -3.7393 131.9336)" class="st5 st6 st7">B</text>
</g>
</svg>
